<svg width="82" height="73" viewBox="0 0 82 73" fill="none" xmlns="http://www.w3.org/2000/svg">
<path d="M41.5125 5.50937H45.8688V13.8375H41.5125V5.50937Z" fill="#D0D0D0"/>
<path d="M45.8688 5.50937H48.8156V13.8375H45.8688V5.50937Z" fill="#94989B"/>
<path d="M39.975 2.5625H47.2781V5.50938H39.975V2.5625Z" fill="#D0D0D0"/>
<path d="M47.2781 2.5625H50.225V5.50938H47.2781V2.5625Z" fill="#94989B"/>
<path d="M31.0062 2.5625L3.45935 18.3219H58.6812L31.0062 2.5625Z" fill="#ED4C5C"/>
<path d="M11.275 18.3219H50.8657V42.6656H11.275V18.3219Z" fill="#F9F3D9"/>
<path d="M26.1375 25.625H36.0031V35.4906H26.1375V25.625Z" fill="#D6EEF0"/>
<path d="M24.8563 24.3438V36.6438H37.1563V24.3438H24.8563ZM36.0031 25.625V29.9812H31.6469V25.625H36.0031ZM30.4938 25.625V29.9812H26.1375V25.625H30.4938ZM26.1375 35.4906V31.1344H30.4938V35.4906H26.1375ZM31.6469 35.4906V31.1344H36.0031V35.4906H31.6469Z" fill="#89664C"/>
<path d="M8.20001 52.4031H66.625V77.1313H8.20001V52.4031Z" fill="#F9F3D9"/>
<path d="M47.2781 59.7062H57.1438V69.5719H47.2781V59.7062Z" fill="#D6EEF0"/>
<path d="M45.9969 58.5531V70.8531H58.2969V58.5531H45.9969ZM57.1438 59.7062V64.0625H52.7875V59.7062H57.1438ZM51.5063 59.7062V64.0625H47.15V59.7062H51.5063ZM47.2781 69.5719V65.3437H51.6344V69.7H47.2781V69.5719ZM52.7875 69.5719V65.3437H57.1438V69.7H52.7875V69.5719ZM23.575 61.8844H34.3375V77.0031H23.575V61.8844Z" fill="#89664C"/>
<path d="M22.55 59.7062H35.4906V61.8844H22.55V59.7062Z" fill="#DBB471"/>
<path d="M32.5438 69.1875C32.9683 69.1875 33.3125 68.8433 33.3125 68.4187C33.3125 67.9942 32.9683 67.65 32.5438 67.65C32.1192 67.65 31.775 67.9942 31.775 68.4187C31.775 68.8433 32.1192 69.1875 32.5438 69.1875Z" fill="#F9F3D9"/>
<path d="M63.55 42.7937H11.1469L2.5625 52.4031H72.2625L63.55 42.7937Z" fill="#ED4C5C"/>
<path d="M79.4375 72.0063C79.4375 70.4688 78.2844 69.3156 76.7469 69.3156C76.4907 69.3156 76.1063 69.3156 75.85 69.4438C75.4657 68.8031 74.825 68.2906 74.0563 68.2906C73.5438 68.2906 73.1594 68.4188 72.775 68.675V68.2906C72.775 67.1375 71.8782 66.2406 70.725 66.2406C69.7 66.2406 68.9313 67.0094 68.675 67.9063C68.4188 67.65 68.1625 67.65 67.7782 67.65C67.0094 67.65 66.3688 68.2906 66.3688 69.0594V77.1313H77.1313C78.2844 77.1313 79.1813 76.2344 79.1813 75.0813C79.1813 74.5688 78.925 74.0563 78.6688 73.6719C79.1813 73.1594 79.4375 72.6469 79.4375 72.0063Z" fill="#83BF4F"/>
<path d="M79.4375 74.9531C79.4375 74.4406 79.1812 73.9281 78.925 73.5437C79.3094 73.0312 79.4375 72.5187 79.4375 71.8781C79.4375 70.3406 78.2844 69.1875 76.7469 69.1875C76.4906 69.1875 76.1063 69.1875 75.85 69.3156C75.5938 68.9312 75.3375 68.5469 74.825 68.2906C74.0563 68.5469 73.6719 69.3156 73.6719 70.0844C73.6719 70.3406 73.6719 70.4687 73.8 70.5969C73.6719 70.4687 73.4156 70.4687 73.1594 70.4687C72.3906 70.4687 71.75 71.1094 71.75 71.8781C71.75 72.3906 72.0062 72.775 72.5187 73.0312C72.2625 73.4156 72.0063 73.9281 72.0063 74.4406C72.0063 75.7219 73.0312 76.7469 74.3125 76.7469H77.3875C78.5406 77.0031 79.4375 76.1062 79.4375 74.9531ZM71.4937 75.3375C71.4937 76.1062 70.8531 75.0812 70.0844 75.0812C69.3156 75.0812 68.675 76.1062 68.675 75.3375C68.675 74.5687 69.3156 73.9281 70.0844 73.9281C70.8531 73.9281 71.4937 74.5687 71.4937 75.3375ZM68.5469 73.0312C68.5469 73.4156 68.2906 73.0312 67.9062 73.0312C67.5219 73.0312 67.2656 73.4156 67.2656 73.0312C67.2656 72.6469 67.5219 72.3906 67.9062 72.3906C68.1625 72.2625 68.5469 72.6469 68.5469 73.0312Z" fill="#699635"/>
<path d="M69.7 70.9813C69.7 71.3656 69.4437 70.8531 69.0594 70.8531C68.675 70.8531 68.4188 71.3656 68.4188 70.9813C68.4188 70.5969 68.675 70.3406 69.0594 70.3406C69.4437 70.3406 69.7 70.5969 69.7 70.9813ZM75.3375 74.3125C75.3375 74.825 74.9531 74.0563 74.4406 74.0563C73.9281 74.0563 73.5438 74.825 73.5438 74.3125C73.5438 73.8 73.9281 73.4156 74.4406 73.4156C74.825 73.4156 75.3375 73.8 75.3375 74.3125ZM77.9 71.8781C77.9 72.6469 77.2594 71.4938 76.4906 71.4938C75.7219 71.4938 75.0812 72.6469 75.0812 71.8781C75.0812 71.1094 75.7219 70.4688 76.4906 70.4688C77.2594 70.4688 77.9 71.1094 77.9 71.8781ZM77.9 75.0813C77.9 75.4656 77.6437 75.0813 77.2594 75.0813C76.875 75.0813 76.6188 75.4656 76.6188 75.0813C76.6188 74.6969 76.875 74.4406 77.2594 74.4406C77.6437 74.4406 77.9 74.6969 77.9 75.0813ZM71.8781 69.5719C71.8781 70.0844 71.4938 69.3156 70.9813 69.3156C70.4688 69.3156 70.0844 70.0844 70.0844 69.5719C70.0844 69.0594 70.4688 68.675 70.9813 68.675C71.4938 68.675 71.8781 69.0594 71.8781 69.5719ZM15.375 72.0063C15.375 70.4688 14.2219 69.3156 12.6844 69.3156C12.4281 69.3156 12.0437 69.3156 11.7875 69.4438C11.4031 68.8031 10.7625 68.2906 9.99375 68.2906C9.48125 68.2906 9.09688 68.4188 8.7125 68.675V68.2906C8.7125 67.1375 7.81562 66.2406 6.6625 66.2406C5.6375 66.2406 4.86875 67.0094 4.74063 67.9063C4.48438 67.65 4.22812 67.65 3.84375 67.65C3.075 67.65 2.5625 68.2906 2.5625 69.0594V77.1313H13.325C14.4781 77.1313 15.375 76.2344 15.375 75.0813C15.375 74.5688 15.1188 74.0563 14.8625 73.6719C15.1188 73.1594 15.375 72.6469 15.375 72.0063Z" fill="#83BF4F"/>
<path d="M15.375 74.9531C15.375 74.4406 15.1188 73.9281 14.8625 73.5437C15.2469 73.0312 15.375 72.5187 15.375 71.8781C15.375 70.3406 14.2219 69.1875 12.6844 69.1875C12.4281 69.1875 12.0437 69.1875 11.7875 69.3156C11.5312 68.9312 11.275 68.5469 10.7625 68.2906C9.99375 68.5469 9.60938 69.3156 9.60938 70.0844C9.60938 70.3406 9.60938 70.4687 9.7375 70.5969C9.60938 70.4687 9.35313 70.4687 9.09687 70.4687C8.32812 70.4687 7.6875 71.1094 7.6875 71.8781C7.6875 72.3906 7.94375 72.775 8.45625 73.0312C8.2 73.4156 7.94375 73.9281 7.94375 74.4406C7.94375 75.7219 8.96875 76.7469 10.25 76.7469H13.325C14.4781 77.0031 15.375 76.1062 15.375 74.9531ZM7.43125 75.3375C7.43125 76.1062 6.79062 75.0812 6.02187 75.0812C5.25312 75.0812 4.6125 76.1062 4.6125 75.3375C4.6125 74.5687 5.25312 73.9281 6.02187 73.9281C6.79062 73.9281 7.43125 74.5687 7.43125 75.3375ZM4.48438 73.0312C4.48438 73.4156 4.22812 73.0312 3.84375 73.0312C3.45937 73.0312 3.20312 73.4156 3.20312 73.0312C3.20312 72.6469 3.45937 72.3906 3.84375 72.3906C4.1 72.2625 4.48438 72.6469 4.48438 73.0312Z" fill="#699635"/>
<path d="M5.63751 70.9812C5.63751 71.3656 5.38126 70.8531 4.99689 70.8531C4.61251 70.8531 4.35626 71.3656 4.35626 70.9812C4.35626 70.5969 4.61251 70.3406 4.99689 70.3406C5.25314 70.3406 5.63751 70.5969 5.63751 70.9812ZM11.275 74.3125C11.275 74.825 10.8906 74.0562 10.3781 74.0562C9.86564 74.0562 9.48126 74.825 9.48126 74.3125C9.48126 73.8 9.86564 73.4156 10.3781 73.4156C10.7625 73.4156 11.275 73.8 11.275 74.3125ZM13.8375 71.8781C13.8375 72.6469 13.1969 71.4937 12.4281 71.4937C11.6594 71.4937 11.0188 72.6469 11.0188 71.8781C11.0188 71.1094 11.7875 70.4687 12.4281 70.4687C13.1969 70.4687 13.8375 71.1094 13.8375 71.8781ZM13.8375 75.0812C13.8375 75.4656 13.5813 75.0812 13.1969 75.0812C12.8125 75.0812 12.5563 75.4656 12.5563 75.0812C12.5563 74.6969 12.8125 74.4406 13.1969 74.4406C13.5813 74.3125 13.8375 74.6969 13.8375 75.0812ZM7.81564 69.5719C7.81564 70.0844 7.43126 69.3156 6.91876 69.3156C6.40626 69.3156 6.02189 70.0844 6.02189 69.5719C6.02189 69.0594 6.40626 68.675 6.91876 68.675C7.43126 68.675 7.81564 69.0594 7.81564 69.5719Z" fill="#83BF4F"/>
</svg>
