<svg width="96" height="75" viewBox="0 0 96 75" fill="none" xmlns="http://www.w3.org/2000/svg">
<path d="M90 48.03H6L11.16 35.1C11.67 33.81 12.9 32.97 14.28 32.97H81.72C83.1 32.97 84.33 33.81 84.84 35.1L90 48.03Z" fill="#8C5543"/>
<path d="M52.53 9.98999H60.6C61.08 9.98999 61.47 10.38 61.47 10.86V15.12C61.47 15.6 61.08 15.99 60.6 15.99H54.36C53.37 15.99 52.56 15.18 52.56 14.19V9.98999H52.53Z" fill="#C3EF3C"/>
<path d="M57.3 12.99H48V6.98999H57.3C57.96 6.98999 58.5 7.52999 58.5 8.18999V11.76C58.53 12.45 57.99 12.99 57.3 12.99Z" fill="#00F397"/>
<path opacity="0.7" d="M6 48H27V90H6V48ZM90 48H69V90H90V48Z" fill="#FFDEA7"/>
<path d="M68.16 41.88L49.71 23.7C49.4898 23.4787 49.228 23.3031 48.9397 23.1832C48.6514 23.0634 48.3423 23.0017 48.03 23.0017C47.7178 23.0017 47.4087 23.0634 47.1203 23.1832C46.832 23.3031 46.5703 23.4787 46.35 23.7L27.9 41.88C27.3548 42.4204 27.0426 43.1525 27.03 43.92V90.03H38.931L47.973 86.409L57.015 90.03H69.03V43.89C69 43.14 68.7 42.42 68.16 41.88Z" fill="#FFCE7C"/>
<path d="M14.16 63H9.84C9.39 63 9 62.61 9 62.16V54.84C9 54.39 9.39 54 9.84 54H14.16C14.61 54 15 54.39 15 54.84V62.16C15 62.64 14.64 63 14.16 63ZM24 62.16V54.84C24 54.39 23.61 54 23.16 54H18.84C18.39 54 18 54.39 18 54.84V62.16C18 62.61 18.39 63 18.84 63H23.16C23.64 63 24 62.64 24 62.16ZM15 74.16V66.84C15 66.39 14.61 66 14.16 66H9.84C9.39 66 9 66.39 9 66.84V74.16C9 74.61 9.39 75 9.84 75H14.16C14.64 75 15 74.64 15 74.16ZM24 74.16V66.84C24 66.39 23.61 66 23.16 66H18.84C18.39 66 18 66.39 18 66.84V74.16C18 74.61 18.39 75 18.84 75H23.16C23.64 75 24 74.64 24 74.16ZM77.16 63H72.84C72.39 63 72 62.61 72 62.16V54.84C72 54.39 72.39 54 72.84 54H77.16C77.61 54 78 54.39 78 54.84V62.16C78 62.64 77.64 63 77.16 63ZM81.84 63H86.16C86.64 63 87 62.64 87 62.16V54.84C87 54.39 86.61 54 86.16 54H81.84C81.39 54 81 54.39 81 54.84V62.16C81 62.61 81.39 63 81.84 63ZM77.16 75H72.84C72.39 75 72 74.61 72 74.16V66.84C72 66.39 72.39 66 72.84 66H77.16C77.61 66 78 66.39 78 66.84V74.16C78 74.64 77.64 75 77.16 75ZM81.84 75H86.16C86.64 75 87 74.64 87 74.16V66.84C87 66.39 86.61 66 86.16 66H81.84C81.39 66 81 66.39 81 66.84V74.16C81 74.61 81.39 75 81.84 75Z" fill="#83CBFF"/>
<path d="M48 54C50.3869 54 52.6761 53.0518 54.364 51.364C56.0518 49.6761 57 47.3869 57 45C57 42.6131 56.0518 40.3239 54.364 38.636C52.6761 36.9482 50.3869 36 48 36C45.6131 36 43.3239 36.9482 41.636 38.636C39.9482 40.3239 39 42.6131 39 45C39 47.3869 39.9482 49.6761 41.636 51.364C43.3239 53.0518 45.6131 54 48 54Z" fill="white"/>
<path d="M46.53 18.6V7.41C46.53 6.63 47.16 6 47.94 6H48.12C48.9 6 49.53 6.63 49.53 7.41V18.639C49.668 18.729 49.8 18.84 49.92 18.96L71.01 40.05C71.64 40.68 72 41.52 72 42.42L71.97 47.88C72 47.91 72 47.97 72 48.03C72 48.87 71.34 49.53 70.5 49.53C69.66 49.53 69 48.87 69 48.03C69 48 69.009 47.976 69.015 47.955C69.0248 47.9312 69.0299 47.9057 69.03 47.88H69V44.25C69 43.47 68.67 42.72 68.13 42.18L49.68 23.73C49.4598 23.5087 49.198 23.333 48.9097 23.2132C48.6214 23.0934 48.3122 23.0317 48 23.0317C47.6878 23.0317 47.3786 23.0934 47.0903 23.2132C46.802 23.333 46.5402 23.5087 46.32 23.73L27.87 42.18C27.3 42.72 27 43.47 27 44.25V47.88H26.97C26.97 47.91 26.976 47.931 26.985 47.955C26.9943 47.9789 26.9994 48.0043 27 48.03C27 48.87 26.34 49.53 25.5 49.53C24.66 49.53 24 48.87 24 48.03C24 48 24.006 47.976 24.015 47.955C24.0243 47.9311 24.0294 47.9057 24.03 47.88H24V42.42C24 41.55 24.36 40.68 24.99 40.05L46.08 18.96C46.2165 18.8241 46.3674 18.7034 46.53 18.6ZM46.5 44.73C46.5 44.784 46.5 44.838 46.509 44.892C46.4864 45.1151 46.5143 45.3404 46.5906 45.5513C46.667 45.7621 46.7898 45.9531 46.95 46.11L51.39 50.55C51.66 50.85 52.05 51 52.44 51C52.83 51 53.19 50.85 53.52 50.55C54.12 49.95 54.12 49.02 53.52 48.42L49.5 44.4V40.5C49.5 39.66 48.84 39 48 39C47.16 39 46.5 39.66 46.5 40.5V44.73ZM57.03 90H38.88V74.1C38.88 72.93 39.81 72 40.98 72H54.93C56.1 72 57.03 72.93 57.03 74.1V90Z" fill="#7D4533"/>
</svg>
