<svg width="24" height="24" viewBox="0 0 24 24" fill="none" xmlns="http://www.w3.org/2000/svg">
<path d="M11 8.018C10.9953 8.21378 10.9142 8.39995 10.7741 8.53673C10.6339 8.67351 10.4458 8.75006 10.25 8.75C9.5 8.75 9.5 7.999 9.5 7.999V7.99C9.50053 7.94523 9.5032 7.90051 9.508 7.856C9.55224 7.46971 9.69706 7.10179 9.928 6.789C10.382 6.176 11.198 5.727 12.513 5.75C13.463 5.767 14.306 6.165 14.834 6.82C15.371 7.487 15.552 8.39 15.196 9.279C14.834 10.184 14.015 10.544 13.544 10.75L13.494 10.773C13.214 10.896 13.081 10.96 13.001 11.024L13 11.025V11.749C13.0001 11.9479 12.9212 12.1387 12.7807 12.2795C12.6401 12.4202 12.4494 12.4994 12.2505 12.4995C12.0516 12.4996 11.8608 12.4207 11.72 12.2802C11.5793 12.1396 11.5001 11.9489 11.5 11.75V11C11.5 10.477 11.752 10.103 12.063 9.853C12.313 9.653 12.628 9.515 12.849 9.417L12.887 9.4C13.429 9.161 13.687 9.013 13.804 8.721C13.8727 8.56401 13.8962 8.39095 13.8718 8.22134C13.8474 8.05172 13.7761 7.89229 13.666 7.761C13.444 7.486 13.037 7.259 12.487 7.25C11.552 7.234 11.242 7.535 11.134 7.682C11.0625 7.77908 11.0164 7.89254 11 8.012V8.018ZM12.25 15.5C12.5152 15.5 12.7696 15.3946 12.9571 15.2071C13.1446 15.0196 13.25 14.7652 13.25 14.5C13.25 14.2348 13.1446 13.9804 12.9571 13.7929C12.7696 13.6054 12.5152 13.5 12.25 13.5C11.9848 13.5 11.7304 13.6054 11.5429 13.7929C11.3554 13.9804 11.25 14.2348 11.25 14.5C11.25 14.7652 11.3554 15.0196 11.5429 15.2071C11.7304 15.3946 11.9848 15.5 12.25 15.5ZM4 4.5C4 3.83696 4.26339 3.20107 4.73223 2.73223C5.20107 2.26339 5.83696 2 6.5 2H18C18.3283 2 18.6534 2.06466 18.9567 2.1903C19.26 2.31594 19.5356 2.50009 19.7678 2.73223C19.9999 2.96438 20.1841 3.23998 20.3097 3.54329C20.4353 3.84661 20.5 4.1717 20.5 4.5V18.75C20.5 18.9489 20.421 19.1397 20.2803 19.2803C20.1397 19.421 19.9489 19.5 19.75 19.5H5.5C5.5 19.7652 5.60536 20.0196 5.79289 20.2071C5.98043 20.3946 6.23478 20.5 6.5 20.5H19.75C19.9489 20.5 20.1397 20.579 20.2803 20.7197C20.421 20.8603 20.5 21.0511 20.5 21.25C20.5 21.4489 20.421 21.6397 20.2803 21.7803C20.1397 21.921 19.9489 22 19.75 22H6.5C5.83696 22 5.20107 21.7366 4.73223 21.2678C4.26339 20.7989 4 20.163 4 19.5V4.5ZM5.5 4.5V18H19V4.5C19 4.23478 18.8946 3.98043 18.7071 3.79289C18.5196 3.60536 18.2652 3.5 18 3.5H6.5C6.23478 3.5 5.98043 3.60536 5.79289 3.79289C5.60536 3.98043 5.5 4.23478 5.5 4.5Z" fill="#011913"/>
</svg>
