<svg width="23" height="23" viewBox="0 0 23 23" fill="none" xmlns="http://www.w3.org/2000/svg">
<path d="M7.1875 6.46875H20.125M7.1875 11.5H20.125M7.1875 16.5312H20.125" stroke="black" stroke-width="2.15625" stroke-linecap="round" stroke-linejoin="round"/>
<path d="M3.59375 7.1875C3.9907 7.1875 4.3125 6.8657 4.3125 6.46875C4.3125 6.0718 3.9907 5.75 3.59375 5.75C3.1968 5.75 2.875 6.0718 2.875 6.46875C2.875 6.8657 3.1968 7.1875 3.59375 7.1875Z" stroke="black" stroke-width="1.4375" stroke-linecap="round" stroke-linejoin="round"/>
<path d="M3.59375 12.2188C3.9907 12.2188 4.3125 11.897 4.3125 11.5C4.3125 11.103 3.9907 10.7812 3.59375 10.7812C3.1968 10.7812 2.875 11.103 2.875 11.5C2.875 11.897 3.1968 12.2188 3.59375 12.2188Z" stroke="black" stroke-width="1.4375" stroke-linecap="round" stroke-linejoin="round"/>
<path d="M3.59375 17.25C3.9907 17.25 4.3125 16.9282 4.3125 16.5312C4.3125 16.1343 3.9907 15.8125 3.59375 15.8125C3.1968 15.8125 2.875 16.1343 2.875 16.5312C2.875 16.9282 3.1968 17.25 3.59375 17.25Z" stroke="black" stroke-width="1.4375" stroke-linecap="round" stroke-linejoin="round"/>
</svg>
