<svg width="528" height="115" viewBox="0 0 528 115" fill="none" xmlns="http://www.w3.org/2000/svg">
<path d="M137.61 80.455C133.32 80.455 129.377 79.4583 125.78 77.465C122.227 75.4717 119.388 72.6983 117.265 69.145C115.185 65.5483 114.145 61.5183 114.145 57.055C114.145 52.5917 115.185 48.5833 117.265 45.03C119.388 41.4767 122.227 38.7033 125.78 36.71C129.377 34.7167 133.32 33.72 137.61 33.72C141.9 33.72 145.822 34.7167 149.375 36.71C152.972 38.7033 155.788 41.4767 157.825 45.03C159.905 48.5833 160.945 52.5917 160.945 57.055C160.945 61.5183 159.905 65.5483 157.825 69.145C155.745 72.6983 152.928 75.4717 149.375 77.465C145.822 79.4583 141.9 80.455 137.61 80.455ZM137.61 70.315C141.25 70.315 144.153 69.1017 146.32 66.675C148.53 64.2483 149.635 61.0417 149.635 57.055C149.635 53.025 148.53 49.8183 146.32 47.435C144.153 45.0083 141.25 43.795 137.61 43.795C133.927 43.795 130.98 44.9867 128.77 47.37C126.603 49.7533 125.52 52.9817 125.52 57.055C125.52 61.085 126.603 64.3133 128.77 66.74C130.98 69.1233 133.927 70.315 137.61 70.315ZM201.904 49.06C201.904 51.7033 201.297 54.13 200.084 56.34C198.87 58.5067 197.007 60.2617 194.494 61.605C191.98 62.9483 188.86 63.62 185.134 63.62H178.244V80H167.129V34.37H185.134C188.774 34.37 191.85 34.9983 194.364 36.255C196.877 37.5117 198.762 39.245 200.019 41.455C201.275 43.665 201.904 46.2 201.904 49.06ZM184.289 54.78C186.412 54.78 187.994 54.2817 189.034 53.285C190.074 52.2883 190.594 50.88 190.594 49.06C190.594 47.24 190.074 45.8317 189.034 44.835C187.994 43.8383 186.412 43.34 184.289 43.34H178.244V54.78H184.289ZM218.805 34.37V80H207.69V34.37H218.805ZM224.975 57.12C224.975 52.6133 225.95 48.605 227.9 45.095C229.85 41.5417 232.558 38.79 236.025 36.84C239.535 34.8467 243.5 33.85 247.92 33.85C253.337 33.85 257.973 35.28 261.83 38.14C265.687 41 268.265 44.9 269.565 49.84H257.345C256.435 47.9333 255.135 46.4817 253.445 45.485C251.798 44.4883 249.913 43.99 247.79 43.99C244.367 43.99 241.593 45.1817 239.47 47.565C237.347 49.9483 236.285 53.1333 236.285 57.12C236.285 61.1067 237.347 64.2917 239.47 66.675C241.593 69.0583 244.367 70.25 247.79 70.25C249.913 70.25 251.798 69.7517 253.445 68.755C255.135 67.7583 256.435 66.3067 257.345 64.4H269.565C268.265 69.34 265.687 73.24 261.83 76.1C257.973 78.9167 253.337 80.325 247.92 80.325C243.5 80.325 239.535 79.35 236.025 77.4C232.558 75.4067 229.85 72.655 227.9 69.145C225.95 65.635 224.975 61.6267 224.975 57.12ZM292.882 80.455C289.545 80.455 286.555 79.9133 283.912 78.83C281.268 77.7467 279.145 76.1433 277.542 74.02C275.982 71.8967 275.158 69.34 275.072 66.35H286.902C287.075 68.04 287.66 69.34 288.657 70.25C289.653 71.1167 290.953 71.55 292.557 71.55C294.203 71.55 295.503 71.1817 296.457 70.445C297.41 69.665 297.887 68.6033 297.887 67.26C297.887 66.1333 297.497 65.2017 296.717 64.465C295.98 63.7283 295.048 63.1217 293.922 62.645C292.838 62.1683 291.278 61.6267 289.242 61.02C286.295 60.11 283.89 59.2 282.027 58.29C280.163 57.38 278.56 56.0367 277.217 54.26C275.873 52.4833 275.202 50.165 275.202 47.305C275.202 43.0583 276.74 39.7433 279.817 37.36C282.893 34.9333 286.902 33.72 291.842 33.72C296.868 33.72 300.92 34.9333 303.997 37.36C307.073 39.7433 308.72 43.08 308.937 47.37H296.912C296.825 45.8967 296.283 44.7483 295.287 43.925C294.29 43.0583 293.012 42.625 291.452 42.625C290.108 42.625 289.025 42.9933 288.202 43.73C287.378 44.4233 286.967 45.4417 286.967 46.785C286.967 48.2583 287.66 49.4067 289.047 50.23C290.433 51.0533 292.6 51.9417 295.547 52.895C298.493 53.8917 300.877 54.845 302.697 55.755C304.56 56.665 306.163 57.9867 307.507 59.72C308.85 61.4533 309.522 63.685 309.522 66.415C309.522 69.015 308.85 71.3767 307.507 73.5C306.207 75.6233 304.3 77.3133 301.787 78.57C299.273 79.8267 296.305 80.455 292.882 80.455ZM314.477 57.12C314.477 52.6133 315.452 48.605 317.402 45.095C319.352 41.5417 322.06 38.79 325.527 36.84C329.037 34.8467 333.002 33.85 337.422 33.85C342.839 33.85 347.475 35.28 351.332 38.14C355.189 41 357.767 44.9 359.067 49.84H346.847C345.937 47.9333 344.637 46.4817 342.947 45.485C341.3 44.4883 339.415 43.99 337.292 43.99C333.869 43.99 331.095 45.1817 328.972 47.565C326.849 49.9483 325.787 53.1333 325.787 57.12C325.787 61.1067 326.849 64.2917 328.972 66.675C331.095 69.0583 333.869 70.25 337.292 70.25C339.415 70.25 341.3 69.7517 342.947 68.755C344.637 67.7583 345.937 66.3067 346.847 64.4H359.067C357.767 69.34 355.189 73.24 351.332 76.1C347.475 78.9167 342.839 80.325 337.422 80.325C333.002 80.325 329.037 79.35 325.527 77.4C322.06 75.4067 319.352 72.655 317.402 69.145C315.452 65.635 314.477 61.6267 314.477 57.12ZM389.144 80L379.654 62.775H376.989V80H365.874V34.37H384.529C388.125 34.37 391.18 34.9983 393.694 36.255C396.25 37.5117 398.157 39.245 399.414 41.455C400.67 43.6217 401.299 46.0483 401.299 48.735C401.299 51.7683 400.432 54.4767 398.699 56.86C397.009 59.2433 394.495 60.9333 391.159 61.93L401.689 80H389.144ZM376.989 54.91H383.879C385.915 54.91 387.432 54.4117 388.429 53.415C389.469 52.4183 389.989 51.01 389.989 49.19C389.989 47.4567 389.469 46.0917 388.429 45.095C387.432 44.0983 385.915 43.6 383.879 43.6H376.989V54.91ZM419.391 34.37V80H408.276V34.37H419.391ZM462.221 49.06C462.221 51.7033 461.614 54.13 460.401 56.34C459.188 58.5067 457.324 60.2617 454.811 61.605C452.298 62.9483 449.178 63.62 445.451 63.62H438.561V80H427.446V34.37H445.451C449.091 34.37 452.168 34.9983 454.681 36.255C457.194 37.5117 459.079 39.245 460.336 41.455C461.593 43.665 462.221 46.2 462.221 49.06ZM444.606 54.78C446.729 54.78 448.311 54.2817 449.351 53.285C450.391 52.2883 450.911 50.88 450.911 49.06C450.911 47.24 450.391 45.8317 449.351 44.835C448.311 43.8383 446.729 43.34 444.606 43.34H438.561V54.78H444.606ZM500.833 34.37V43.275H488.743V80H477.628V43.275H465.538V34.37H500.833Z" fill="#1B2A22"/>
<path fill-rule="evenodd" clip-rule="evenodd" d="M11.3129 0.284964C7.26429 1.15151 3.42969 4.13439 1.62143 7.82332C-0.10855 11.3531 0.00139832 7.98247 0.00139832 57.481C0.00139832 96.3687 0.0437037 101.994 0.347983 103.515C1.19431 107.745 4.11969 111.574 7.91945 113.424C11.4414 115.138 8.50494 115.036 52.4648 114.971C91.813 114.913 91.8178 114.913 92.4424 114.45C92.786 114.195 93.277 113.707 93.5335 113.366L94 112.745V57.481V2.21721L93.5335 1.59635C93.277 1.25491 92.786 0.767125 92.4424 0.51222L91.8178 0.0487156L52.3006 0.00937844C19.1665 -0.02344 12.5459 0.0210672 11.3129 0.284964ZM87.2703 46.6352L87.2131 86.5906L49.3196 86.7029C13.1291 86.8104 11.3701 86.8342 10.1818 87.2339C9.49741 87.4638 8.45381 87.8954 7.86289 88.1928L6.7883 88.7336V51.3143C6.7883 24.4886 6.86024 13.5578 7.04236 12.7038C7.66494 9.78568 9.78404 7.58595 12.6101 6.92441C13.0854 6.81314 29.788 6.71491 50.3948 6.70232L87.3276 6.67984L87.2703 46.6352ZM24.5474 21.7219C22.7405 22.1634 21.8412 23.408 21.9953 25.2542C22.0837 26.3141 22.219 26.6126 22.9309 27.32L23.763 28.1467H47.0573H70.3515L71.1781 27.3254C71.8654 26.6425 72.024 26.3046 72.119 25.323C72.2595 23.8706 71.777 22.8537 70.6033 22.1283L69.7934 21.628L47.5097 21.592C35.2537 21.5725 24.9206 21.6309 24.5474 21.7219ZM87.3262 100.867V108.289L49.9417 108.229L12.5572 108.17L11.2794 107.575C7.30229 105.722 5.77841 101.244 7.78575 97.3083C8.49407 95.9191 10.1048 94.4935 11.6199 93.9145C12.7617 93.4782 13.4791 93.4696 50.0548 93.4582L87.3262 93.4465V100.867Z" fill="url(#paint0_linear_10_2054)"/>
<defs>
<linearGradient id="paint0_linear_10_2054" x1="0.00141051" y1="-0.0636748" x2="93.387" y2="115.612" gradientUnits="userSpaceOnUse">
<stop stop-color="#79BD9A"/>
<stop offset="1" stop-color="#CFF09E"/>
</linearGradient>
</defs>
</svg>
