<?xml version="1.0" encoding="UTF-8" standalone="no"?>
<!DOCTYPE svg PUBLIC "-//W3C//DTD SVG 1.1//EN" "http://www.w3.org/Graphics/SVG/1.1/DTD/svg11.dtd">
<svg xmlns="http://www.w3.org/2000/svg" version="1.1" viewBox="0 0 1000 1000">
<g stroke-width="2.00" fill="none" stroke-linecap="butt">
<path stroke="#a0aada" vector-effect="non-scaling-stroke" d="
  M 196.56 0.00
  C 88.60 2.38 2.63 88.17 0.00 196.69"
/>
<path stroke="#a0aada" vector-effect="non-scaling-stroke" d="
  M 803.06 0.00
  C 912.37 2.33 996.65 88.21 1000.00 196.81"
/>
<path stroke="#a0aada" vector-effect="non-scaling-stroke" d="
  M 1000.00 803.56
  C 996.98 911.22 911.75 998.25 802.94 1000.00"
/>
<path stroke="#a0aada" vector-effect="non-scaling-stroke" d="
  M 196.44 1000.00
  C 87.82 998.13 2.62 910.40 0.00 803.19"
/>
<path stroke="#a0aada" vector-effect="non-scaling-stroke" d="
  M 634.04 715.43
  L 659.20 744.36
  Q 659.53 744.75 660.05 744.75
  L 785.19 744.75
  A 0.42 0.41 69.2 0 0 785.50 744.06
  L 711.54 661.44
  A 0.85 0.85 0.0 0 1 711.55 660.31
  C 747.20 621.46 770.60 573.17 778.03 520.82
  C 797.17 386.10 716.78 261.94 587.67 223.09
  Q 510.44 199.85 430.47 217.90
  C 277.55 252.41 186.59 400.45 226.09 552.61
  C 246.82 632.45 306.06 698.45 381.98 729.90
  C 461.31 762.76 559.26 763.68 633.18 715.31
  Q 633.66 715.00 634.04 715.43"
/>
<path stroke="#a0aada" vector-effect="non-scaling-stroke" d="
  M 449.50 513.74
  L 574.96 513.75
  Q 575.47 513.75 575.80 514.14
  L 633.01 580.00
  Q 633.82 580.93 634.57 579.95
  C 655.30 553.00 663.07 524.17 664.62 490.53
  C 668.45 407.99 616.13 336.49 534.59 319.48
  C 480.44 308.19 420.59 323.05 381.35 362.99
  C 296.96 448.90 327.66 606.43 448.26 640.98
  C 484.30 651.31 522.20 650.76 556.59 636.18
  A 0.41 0.41 0.0 0 0 556.74 635.53
  L 449.30 514.19
  A 0.27 0.27 0.0 0 1 449.50 513.74"
/>
</g>
<path fill="transparent" d="
  M 0.00 0.00
  L 196.56 0.00
  C 88.60 2.38 2.63 88.17 0.00 196.69
  L 0.00 0.00
  Z"
/>
<path fill="#4154b5" d="
  M 196.56 0.00
  L 803.06 0.00
  C 912.37 2.33 996.65 88.21 1000.00 196.81
  L 1000.00 803.56
  C 996.98 911.22 911.75 998.25 802.94 1000.00
  L 196.44 1000.00
  C 87.82 998.13 2.62 910.40 0.00 803.19
  L 0.00 196.69
  C 2.63 88.17 88.60 2.38 196.56 0.00
  Z
  M 634.04 715.43
  L 659.20 744.36
  Q 659.53 744.75 660.05 744.75
  L 785.19 744.75
  A 0.42 0.41 69.2 0 0 785.50 744.06
  L 711.54 661.44
  A 0.85 0.85 0.0 0 1 711.55 660.31
  C 747.20 621.46 770.60 573.17 778.03 520.82
  C 797.17 386.10 716.78 261.94 587.67 223.09
  Q 510.44 199.85 430.47 217.90
  C 277.55 252.41 186.59 400.45 226.09 552.61
  C 246.82 632.45 306.06 698.45 381.98 729.90
  C 461.31 762.76 559.26 763.68 633.18 715.31
  Q 633.66 715.00 634.04 715.43
  Z"
/>
<path fill="transparent" d="
  M 803.06 0.00
  L 1000.00 0.00
  L 1000.00 196.81
  C 996.65 88.21 912.37 2.33 803.06 0.00
  Z"
/>
<path fill="transparent" d="
  M 633.18 715.31
  C 559.26 763.68 461.31 762.76 381.98 729.90
  C 306.06 698.45 246.82 632.45 226.09 552.61
  C 186.59 400.45 277.55 252.41 430.47 217.90
  Q 510.44 199.85 587.67 223.09
  C 716.78 261.94 797.17 386.10 778.03 520.82
  C 770.60 573.17 747.20 621.46 711.55 660.31
  A 0.85 0.85 0.0 0 0 711.54 661.44
  L 785.50 744.06
  A 0.42 0.41 69.2 0 1 785.19 744.75
  L 660.05 744.75
  Q 659.53 744.75 659.20 744.36
  L 634.04 715.43
  Q 633.66 715.00 633.18 715.31
  Z
  M 449.50 513.74
  L 574.96 513.75
  Q 575.47 513.75 575.80 514.14
  L 633.01 580.00
  Q 633.82 580.93 634.57 579.95
  C 655.30 553.00 663.07 524.17 664.62 490.53
  C 668.45 407.99 616.13 336.49 534.59 319.48
  C 480.44 308.19 420.59 323.05 381.35 362.99
  C 296.96 448.90 327.66 606.43 448.26 640.98
  C 484.30 651.31 522.20 650.76 556.59 636.18
  A 0.41 0.41 0.0 0 0 556.74 635.53
  L 449.30 514.19
  A 0.27 0.27 0.0 0 1 449.50 513.74
  Z"
/>
<path fill="#4154b5" d="
  M 449.50 513.74
  A 0.27 0.27 0.0 0 0 449.30 514.19
  L 556.74 635.53
  A 0.41 0.41 0.0 0 1 556.59 636.18
  C 522.20 650.76 484.30 651.31 448.26 640.98
  C 327.66 606.43 296.96 448.90 381.35 362.99
  C 420.59 323.05 480.44 308.19 534.59 319.48
  C 616.13 336.49 668.45 407.99 664.62 490.53
  C 663.07 524.17 655.30 553.00 634.57 579.95
  Q 633.82 580.93 633.01 580.00
  L 575.80 514.14
  Q 575.47 513.75 574.96 513.75
  L 449.50 513.74
  Z"
/>
<path fill="transparent" d="
  M 0.00 803.19
  C 2.62 910.40 87.82 998.13 196.44 1000.00
  L 0.00 1000.00
  L 0.00 803.19
  Z"
/>
<path fill="transparent" d="
  M 1000.00 803.56
  L 1000.00 1000.00
  L 802.94 1000.00
  C 911.75 998.25 996.98 911.22 1000.00 803.56
  Z"
/>
</svg>
